<?xml version="1.0" encoding="utf-8"?>
<!-- Generator: Adobe Illustrator 18.1.0, SVG Export Plug-In . SVG Version: 6.00 Build 0)  -->
<!DOCTYPE svg PUBLIC "-//W3C//DTD SVG 1.1//EN" "http://www.w3.org/Graphics/SVG/1.1/DTD/svg11.dtd">
<svg version="1.1" id="Layer_1" xmlns="http://www.w3.org/2000/svg" xmlns:xlink="http://www.w3.org/1999/xlink" x="0px" y="0px"
	 viewBox="2.4 50.8 129.1 43.2" enable-background="new 2.4 50.8 129.1 43.2" xml:space="preserve">
<g>
	<g id="Bird">
		<g>
			<g>
				<path fill="#FFFFFF" d="M27.3,81c-1-1-2.4-2.5-2.8-2.9s-1.4-1.2-1.4-1.2l-2.2-2.5c0,0-3.2-4.4-4.1-5.5c-2.6-3-4.6-5.8-4.9-7
					c-0.3-0.9-0.3-1.7-0.3-2.5s-0.1-2.4-0.3-3.5c-0.3-1.4-1.4-2.1-2-2.3c-0.6-0.3-1.7-0.4-2.2-0.2c-0.3,0.1-0.9,0.4-0.9,0.4
					l-0.9,1.7c0,0-0.2,0.4-0.4,1.2c-0.2,0.8-0.1,1.7-0.2,2.3s-0.9,1.2-1.3,2.9c-1,3.8-0.2,6.9,0.9,8.5c0.9,1.4,2.1,2.3,3.5,3.4
					c1.4,0.9,3.3,1.7,3.8,1.8c0.5,0.2,0.6,0.6,0.6,1.2c-0.1,0.6-1.4,1-2.4,1.3s-1.4,0.2-1.9,0.6C7.3,79,5.3,79.3,5,79.4
					c-0.3,0.1-0.5,0.4-0.5,0.4s2.5-0.5,3.3-0.4c0.5,0,2.1,0.5,2.1,0.5s-0.2-0.3-0.3-0.4c-0.2-0.2-1-0.3-1-0.3S9,79,9.2,79
					c0.3,0,0.8,0,1.1,0c0.6,0.1,2.3,0.3,2.3,0.3S12.4,79,12.2,79c-0.3-0.1-1.2-0.3-1.2-0.3s1-0.6,1.4-0.8c0.3-0.2,0.9-0.2,1.2-0.5
					s0.2-0.9,0.2-0.9s0.6-0.1,1.3,0c1.2,0.1,2.7,0.5,3.5,0.7c1.7,0.5,2.9,1,4.5,2.2c1.1,0.9,6.2,4.7,6.2,4.7S28.3,82,27.3,81z
					 M9.5,55.6c0,0.1-0.5,0.1-0.7-0.1C8.5,55.3,8.7,55,8.7,55c0.3-0.2,0.5-0.1,0.6,0C9.5,55.3,9.5,55.6,9.5,55.6z"/>
			</g>
		</g>
		<g>
			<g>
				<path fill="#FFFFFF" d="M19.3,76c0,0,3.6,3,5.4,4.5s5.7,4.7,5.7,4.7c0-0.3-0.6-0.9-0.6-0.9l1.7,1.2c0,0-0.4-0.6-0.7-0.9
					c-0.8-0.9-10.2-8.4-10.2-8.4"/>
			</g>
		</g>
		<g>
			<g>
				<path fill="#FFFFFF" d="M12.6,64.6c0.7,0.7,2.9,2.9,4,4s7.2,7.4,7.2,7.4s-0.5,0-0.8-0.2c-0.9-0.3-2.3-1.7-2.3-1.7"/>
			</g>
		</g>
		<g>
			<g>
				<path fill="#FFFFFF" d="M14.4,69.9c1.6,1.3,4.1,2.4,5.1,3.2c1,0.9,4.1,4.1,4.1,4.1s-8.7-4.1-11.2-5.5C10,70.2,6.7,67,6.7,67"/>
			</g>
		</g>
		<g>
			<g>
				<path fill="#FFFFFF" d="M9.5,55.6c1.4,1.3,2.2,2.3,1.7,3.4c-0.7,1.4-2.6,1.2-2.6,1.2"/>
			</g>
		</g>
		<g>
			<g>
				<path fill="#FFFFFF" d="M9,67l2.5,1.9c0,0,1.7,0.4,2.6,0.5c1,0.1,2.3,0,2.3,0l-2-1.9"/>
			</g>
		</g>
		<path fill="#FFFFFF" d="M4.8,53.6c0,0,0.8,0.6,1.2,0.9c0.7,0.6,0.7,1.3,0.7,1.3"/>
		<g>
			<path fill="#FFFFFF" d="M4.8,53.6c0,0,0.6,0,1,0c0.3,0,0.7,0.1,0.8,0.2s0.3,0.4,0.3,0.9c0,0.4-0.3,1-0.3,1s-1.1-0.1-1.3-0.3
				c-0.2-0.2-0.4-0.6-0.5-0.9C4.8,54.2,4.8,53.6,4.8,53.6z"/>
		</g>
	</g>
	<g id="Canary_Text">
		<g enable-background="new    ">
			<path fill="#FFFFFF" d="M34.4,57.4c1.2-4.1,3.5-6.2,6.9-6.1c1.2,0,2.3,0.3,3.2,0.7c1.3,0.7,1.9,1.7,1.9,3.2
				c0,1.8-0.4,3.2-1.2,4.1c-1.1,1.4-3.2,2-6.1,2c-0.5,0-0.9,0-1.5,0c-0.2,1.5-0.3,3-0.3,4.6c0,2.1,0.1,4.2,0.4,6.5
				c0.1,1,0.6,1.8,1.2,2.5c0.7,0.7,1.5,1.1,2.5,1.2c0.3,0,0.6,0.1,0.9,0.1c2,0,4.4-1.7,7-5.2c0.9,0.7,1.4,1.4,1.7,2.1
				c-1.3,2.2-2.7,3.9-4.4,5c-1.2,0.9-2.4,1.3-3.7,1.5c-0.1,0-0.8,0.1-2.2,0.1c-1.2,0.1-2.3-0.2-3.4-0.7c-1.2-0.6-2.1-1.3-2.6-2.3
				c-1-2.1-1.6-5.1-1.7-8.9c-0.1-2.7,0.1-5,0.3-6.7c-0.9-0.1-2.1-0.3-3.8-0.7c0.1-1.2,0.4-2.3,0.7-3.4C31.6,57,32.9,57.3,34.4,57.4z
				 M38.4,57.8c1.8,0.1,3.1-0.1,3.9-0.5c0.5-0.2,0.7-0.7,0.7-1.3c0-0.9-0.5-1.3-1.4-1.3C40.1,54.7,39,55.7,38.4,57.8z"/>
			<path fill="#FFFFFF" d="M59.9,80.1c-1,0-1.8-0.2-2.2-0.5c-0.5-0.5-0.9-1.3-1.1-2.6c-0.7,1.4-1.5,2.3-2.6,2.7
				c-0.4,0.2-0.9,0.3-1.4,0.3c-1.7,0-2.7-0.6-3.3-1.7c-0.6-1.2-0.9-3-0.9-5.7c0-1.5,0.1-3.6,0.3-6.1c0.2-2.1,0.4-3.7,0.7-4.6
				c0.4-1.2,1.1-2,2.1-2.6c0.8-0.5,1.7-0.7,2.6-0.7c1.5,0,2.6,0.6,3.4,1.9c0.1-0.7,0.2-1.5,0.3-2.2c0.7,0,1.8,0.1,3.3,0.2
				c-0.3,4.7-0.6,10.4-1,17c0,0.5,0.3,0.7,0.9,0.7c0.2,0,0.4,0,0.6-0.1c0.9-0.6,1.4-1.1,1.7-1.3c0.8-0.8,1.7-2,2.8-3.5
				c0.7,0.6,1.3,1.3,1.8,2.1c-1.8,2.9-3.4,4.9-4.8,5.9C62,79.7,61,80.1,59.9,80.1z M56.5,73c0.2-1.8,0.4-4.9,0.6-9.3
				c-0.7-1.2-1.5-1.9-2.4-1.9s-1.6,0.6-2,1.7c-0.5,1.6-0.8,4.4-0.8,8.6c0,1.8,0.1,2.9,0.3,3c0.3,0.3,0.6,0.4,1,0.4
				C54.3,75.5,55.4,74.7,56.5,73z"/>
			<path fill="#FFFFFF" d="M74.1,77c-0.2-2.1-0.3-4.8-0.3-8.2c0-3-0.1-4.6-0.1-4.8c-0.2-0.7-0.5-1-1-1c-0.8,0-2,0.8-3.5,2.4
				c0.2,2.7,0.5,7.4,0.8,13.9c-1.1,0.1-2.4,0.3-4,0.5l-0.9-21.2c1-0.1,2.1-0.2,3.3-0.2c0,0.6,0.1,1.7,0.3,3.4c1.2-1,1.9-1.6,2.3-1.9
				c1.1-0.7,2.1-1,3.1-1c0.3,0,0.6,0,1,0.1c1.2,0.3,1.9,1.6,2.2,4c0.1,0.5,0.2,2.4,0.3,5.8c0.1,2.4,0.1,3.8,0.2,4.2
				c0.1,1.7,0.2,2.6,0.3,2.8c0.1,0.2,0.3,0.3,0.5,0.3c0.9,0,2.3-1.7,4.2-5.1c0.7,0.7,1.3,1.4,1.7,2.1c-1.1,2.6-2.6,4.5-4.4,5.8
				c-1,0.8-2.1,1.2-3.2,1.2C75.2,80.1,74.3,79.1,74.1,77z"/>
			<path fill="#FFFFFF" d="M93.4,80.1c-1,0-1.8-0.2-2.2-0.5c-0.5-0.5-0.9-1.3-1.1-2.6c-0.6,1.4-1.5,2.3-2.6,2.7
				c-0.4,0.2-0.9,0.3-1.4,0.3c-1.7,0-2.7-0.6-3.3-1.7c-0.6-1.2-0.9-3-0.9-5.7c0-1.5,0.1-3.6,0.3-6.1c0.2-2.1,0.4-3.7,0.7-4.6
				c0.4-1.2,1.1-2,2.1-2.6c0.8-0.5,1.6-0.7,2.6-0.7c1.5,0,2.6,0.6,3.4,1.9c0.1-0.7,0.2-1.5,0.3-2.2c0.7,0,1.8,0.1,3.3,0.2
				c-0.3,4.7-0.6,10.4-1,17c0,0.5,0.3,0.7,0.8,0.7c0.2,0,0.4,0,0.6-0.1c0.9-0.6,1.5-1.1,1.7-1.3c0.8-0.8,1.7-2,2.8-3.5
				c0.6,0.6,1.3,1.3,1.8,2.1c-1.8,2.9-3.4,4.9-4.8,5.9C95.5,79.7,94.5,80.1,93.4,80.1z M90,73c0.2-1.8,0.4-4.9,0.6-9.3
				c-0.7-1.2-1.5-1.9-2.4-1.9s-1.6,0.6-2,1.7c-0.5,1.6-0.8,4.4-0.8,8.6c0,1.8,0.1,2.9,0.3,3c0.3,0.3,0.6,0.4,1,0.4
				C87.8,75.5,88.9,74.7,90,73z"/>
			<path fill="#FFFFFF" d="M106.7,58.4c0.9,1.5,1.9,2.3,3,2.6c0.3,0.1,0.6,0.1,1,0.1c0.8,0,1.6-0.2,2.4-0.6c0.1,0.2,0.4,1,0.9,2.6
				c-1.1,1.2-2.5,1.8-4.2,1.8c-1.1,0-1.9-0.3-2.5-0.8c-1.3,1.3-2.3,4-3.1,8.2c-0.6,2.9-0.8,5.3-0.8,7.4c-1.2,0-2.4-0.2-3.7-0.3
				c-0.2-4.9-0.5-11.8-1-20.7l3.6-0.3c0.1,1,0.2,3.8,0.3,8.5h0.1c0.5-1.4,0.9-2.7,1.3-4.1C104.6,61.1,105.5,59.7,106.7,58.4z"/>
			<path fill="#FFFFFF" d="M115.4,73.6c0,0.8,0.2,1.2,0.8,1.2c1,0,2.2-0.7,3.7-2.2c0.2-2.8,0.4-7.4,0.9-13.7c1.5-0.1,2.7-0.1,3.8,0
				c-0.1,2-0.3,5.1-0.6,9.3c-0.3,4.2-0.5,7-0.6,8.4c2.1-1.9,4.1-3.8,5.8-5.6c0.5,0.5,1,1.2,1.7,2.1c-1.5,1.6-2.9,3.2-4.4,4.7
				c-1.5,1.6-2.6,2.6-3.4,3.3c0,1.5-0.1,3-0.2,4.6c-0.2,2.9-0.6,4.9-1.5,6.1c-0.6,0.9-1.7,1.4-3.1,1.6c-0.5,0.1-0.9,0.1-1.3,0.1
				c-1.5,0-2.7-0.5-3.6-1.4c-0.6-0.6-0.9-1.7-0.9-3.2c0-1,0.2-2,0.6-2.8c0.5-1.2,1.5-2.4,2.9-3.6c1-0.9,2.2-1.9,3.7-3
				c0-0.3,0.1-1.3,0.1-3c-2.1,1.9-4,2.9-5.5,2.9c-0.4,0-0.8-0.1-1.2-0.2c-0.5-0.1-0.8-0.5-1.2-1.1c-0.3-0.6-0.5-1.2-0.5-1.9
				c0-1.2,0.1-3.4,0.3-6.7c0-1.6,0.2-5.1,0.6-10.5c1.6-0.2,2.9-0.1,3.9,0C116,63.3,115.7,68.2,115.4,73.6z M119.7,83.3
				c-0.7,0.7-1.4,1.4-2.1,2.1c-0.8,0.9-1.3,1.5-1.4,2c-0.1,0.4-0.2,0.8-0.2,1.2c0,1.2,0.4,1.7,1.2,1.7c0.9,0,1.5-0.4,1.8-1
				c0.1-0.1,0.2-0.7,0.3-1.6c0.1-0.6,0.2-1.3,0.2-2.2C119.6,84.3,119.6,83.6,119.7,83.3z"/>
		</g>
	</g>
</g>
</svg>
