<?xml version="1.0" encoding="utf-8"?>
<!-- Generator: Adobe Illustrator 18.1.0, SVG Export Plug-In . SVG Version: 6.00 Build 0)  -->
<!DOCTYPE svg PUBLIC "-//W3C//DTD SVG 1.1//EN" "http://www.w3.org/Graphics/SVG/1.1/DTD/svg11.dtd">
<svg version="1.1" id="Layer_1" xmlns="http://www.w3.org/2000/svg" xmlns:xlink="http://www.w3.org/1999/xlink" x="0px" y="0px"
	 viewBox="0 0 792 612" enable-background="new 0 0 792 612" xml:space="preserve">
<g id="Layer_7" display="none">
	
		<rect x="-129.2" y="73.7" display="inline" fill="#F9CE1D" stroke="#000000" stroke-miterlimit="10" width="1093.2" height="434.3"/>
</g>
<g id="Bird">
	<g>
		
			<image overflow="visible" opacity="0.2" enable-background="new    " width="549" height="635" xlink:href="55A7CBC849FC6C3F.png"  transform="matrix(0.3067 0 0 0.3067 0 196.2253)">
		</image>
		<g>
			
				<linearGradient id="SVGID_1_" gradientUnits="userSpaceOnUse" x1="-105.9138" y1="57.9025" x2="84.5767" y2="123.8991" gradientTransform="matrix(0.3067 0 0 -0.3067 0 354.3421)">
				<stop  offset="0" style="stop-color:#DFDFDF"/>
				<stop  offset="4.079640e-02" style="stop-color:#D4D3D3"/>
				<stop  offset="1" style="stop-color:#FFFFFF"/>
			</linearGradient>
			<path fill="url(#SVGID_1_)" d="M151.1,368.7c-6-6-14.8-15.5-17.3-17.9c-2.5-2.5-8.7-7.4-8.7-7.4l-13.4-15.6
				c0,0-19.4-27.5-25.3-34.4c-16-18.6-28.2-35.6-30.5-43.1c-1.6-5.1-1.8-10.1-1.8-15.5s-0.7-15-2.3-21.7
				c-2.1-8.8-8.8-13.2-12.2-14.5c-4.1-1.6-10.1-2.3-13.7-1.3c-2.2,0.6-5.4,2.4-5.4,2.4l-5.2,10.2c0,0-1.2,2.7-2.6,7.6
				c-1.4,4.9-0.4,10.3-1,14.6c-0.6,4.3-5.6,7.4-8.2,17.5c-6,23.2-1.3,42.6,5.2,52.5c5.8,8.9,12.9,14.6,22,20.7
				c8.7,5.8,20.5,10.1,23.8,11.3c3.3,1.2,4.1,3.9,3.9,7.4c-0.2,3.5-8.4,6.2-14.4,8.3c-6,2.1-8.4,1.4-11.7,3.5
				c-3.3,2.1-16.5,3.8-18.4,4.7c-1.8,0.8-2.9,2.5-2.9,2.5s15.3-2.9,20.6-2.5c3.2,0.2,13.1,3.2,13.1,3.2s-1.3-1.9-1.8-2.5
				c-1.4-1.2-6.3-2.1-6.3-2.1s2.6-1.1,3.6-1.3c1.6-0.2,5.1,0.1,6.7,0.2c3.7,0.4,14.5,2.3,14.5,2.3s-1.3-1.7-2.5-2.2
				c-1.7-0.8-6.9-1.7-6.9-1.7s6.2-3.9,8.4-4.9c2.2-1,5.4-1.2,7.2-3.1c1.8-1.9,1.4-5.2,1.4-5.2s3.8-0.5,8.2-0.2
				c7.2,0.5,17.1,2.9,21.7,4.2c10.7,3.1,18.1,6.3,27.9,13.7c6.8,5.1,38.3,29,38.3,29S157.1,374.6,151.1,368.7z M41.2,211.9
				c-0.2,0.3-3,0.7-4.4-0.6c-1.4-1.2-0.7-3.2-0.7-3.2c1.7-1.3,3.2-0.3,3.7,0.2C41.1,209.4,41.4,211.6,41.2,211.9z"/>
		</g>
	</g>
	<g>
		
			<image overflow="visible" opacity="0.2" enable-background="new    " width="268" height="211" xlink:href="55A7CBC849FC6C3D.png"  transform="matrix(0.3067 0 0 0.3067 104.2913 340.0859)">
		</image>
		<g>
			
				<linearGradient id="SVGID_2_" gradientUnits="userSpaceOnUse" x1="511.5643" y1="-205.882" x2="487.5643" y2="-134.882" gradientTransform="matrix(0.3067 0 0 -0.3067 0 354.3421)">
				<stop  offset="0" style="stop-color:#DFDFDF"/>
				<stop  offset="4.079640e-02" style="stop-color:#D4D3D3"/>
				<stop  offset="1" style="stop-color:#FFFFFF"/>
			</linearGradient>
			<path fill="url(#SVGID_2_)" d="M101.7,337.7c0,0,22.3,18.8,33.7,27.8s35.2,28.8,35.2,28.8c-0.1-2.2-3.3-5.3-3.3-5.3l10.7,7.5
				c0,0-2.4-3.5-4.1-5.5c-5-5.6-63.2-52.1-63.2-52.1"/>
		</g>
	</g>
	<g>
		
			<image overflow="visible" opacity="0.2" enable-background="new    " width="244" height="249" xlink:href="55A7CBC849FC6C43.png"  transform="matrix(0.3067 0 0 0.3067 57.6669 266.7753)">
		</image>
		<g>
			
				<linearGradient id="SVGID_3_" gradientUnits="userSpaceOnUse" x1="453.4777" y1="4.7179" x2="376.4777" y2="86.7179" gradientTransform="matrix(0.3067 0 0 -0.3067 0 354.3421)">
				<stop  offset="0" style="stop-color:#DFDFDF"/>
				<stop  offset="4.079640e-02" style="stop-color:#D4D3D3"/>
				<stop  offset="1" style="stop-color:#FFFFFF"/>
			</linearGradient>
			<path fill="url(#SVGID_3_)" d="M60,267.1c4.6,4.3,17.5,17.5,24.7,24.8c6.7,6.8,44.5,45.8,44.5,45.8s-2.8-0.1-4.9-1
				c-5.4-2.3-14.4-10.4-14.4-10.4"/>
		</g>
	</g>
	<g>
		
			<image overflow="visible" opacity="0.2" enable-background="new    " width="360" height="226" xlink:href="55A7CBC849FC6C45.png"  transform="matrix(0.3067 0 0 0.3067 26.3796 283.6459)">
		</image>
		<g>
			
				<linearGradient id="SVGID_4_" gradientUnits="userSpaceOnUse" x1="337.2894" y1="-43.8787" x2="298.2894" y2="34.1213" gradientTransform="matrix(0.3067 0 0 -0.3067 0 354.3421)">
				<stop  offset="0" style="stop-color:#DFDFDF"/>
				<stop  offset="4.079640e-02" style="stop-color:#D4D3D3"/>
				<stop  offset="1" style="stop-color:#FFFFFF"/>
			</linearGradient>
			<path fill="url(#SVGID_4_)" d="M71.6,300.2c10.1,7.8,25.5,14.7,31.4,19.8c6.3,5.3,25.5,25.3,25.5,25.3s-54-25.3-69.2-34.5
				s-35.2-29-35.2-29"/>
		</g>
	</g>
	<g>
		
			<image overflow="visible" opacity="0.2" enable-background="new    " width="68" height="106" xlink:href="55A7CBC849FC6C47.png"  transform="matrix(0.3067 0 0 0.3067 34.6615 211.2555)">
		</image>
		<g>
			
				<linearGradient id="SVGID_5_" gradientUnits="userSpaceOnUse" x1="261.3375" y1="356.7127" x2="149.3375" y2="406.7127" gradientTransform="matrix(0.3067 0 0 -0.3067 0 354.3421)">
				<stop  offset="0" style="stop-color:#DFDFDF"/>
				<stop  offset="4.079640e-02" style="stop-color:#D4D3D3"/>
				<stop  offset="1" style="stop-color:#FFFFFF"/>
			</linearGradient>
			<path fill="url(#SVGID_5_)" d="M41.2,211.9c8.8,8.2,13.4,14.5,10.2,21.1c-4.2,8.7-16,7.6-16,7.6"/>
		</g>
	</g>
	<g>
		
			<image overflow="visible" opacity="0.2" enable-background="new    " width="168" height="67" xlink:href="55A7CBC849FC6C44.png"  transform="matrix(0.3067 0 0 0.3067 37.4222 282.7257)">
		</image>
		<g>
			
				<linearGradient id="SVGID_6_" gradientUnits="userSpaceOnUse" x1="175.7171" y1="110.9683" x2="197.7171" y2="204.9684" gradientTransform="matrix(0.3067 0 0 -0.3067 0 354.3421)">
				<stop  offset="0" style="stop-color:#DFDFDF"/>
				<stop  offset="4.079640e-02" style="stop-color:#D4D3D3"/>
				<stop  offset="1" style="stop-color:#FFFFFF"/>
			</linearGradient>
			<path fill="url(#SVGID_6_)" d="M38,282.4l15.3,11.6c0,0,10.1,2.5,16.3,3.1c6.1,0.6,14.4,0,14.4,0l-12.6-12"/>
		</g>
	</g>
	<path fill="none" d="M12.3,199.2c0,0,5,3.5,7.1,5.1c4.6,3.7,4.6,8,4.6,8"/>
	<g>
		<path fill="#FFFFFF" d="M12.3,199.2c0,0,3.6-0.2,6.3,0.1c1.7,0.2,4.4,0.8,4.8,1.3c0.4,0.5,2.1,2.5,2.1,5.4c0,2.7-1.5,6.3-1.5,6.3
			s-6.7-0.2-7.7-1.2c-1.2-1.2-2.3-3.7-2.8-5.2C12.5,203,12.3,199.2,12.3,199.2z"/>
	</g>
</g>
<g id="Canary_Text">
	<g enable-background="new    ">
		<path fill="#FFFFFF" d="M194.9,223.1c7.5-25.5,21.7-38.2,42.5-38c7.4,0,14,1.5,19.6,4.5c8,4.1,11.9,10.6,11.7,19.4
			c-0.3,11.4-2.6,19.8-7.1,25.2c-6.8,8.3-19.4,12.4-37.6,12.4c-2.9,0-5.8-0.1-9-0.2c-1,9-1.5,18.4-1.5,28.4
			c0,12.7,0.8,26.1,2.4,40.4c0.7,6,3.3,11,7.6,15.2c4.4,4.1,9.4,6.6,15.3,7.5c1.8,0.3,3.6,0.4,5.1,0.4c12.7,0,27.2-10.7,43.6-32
			c5.3,4.4,8.9,8.7,10.9,12.8c-8.1,13.7-17,24-26.7,30.9c-7.3,5.1-14.8,8.3-22.6,9.6c-0.4,0.2-4.8,0.4-13.3,0.9
			c-7,0.4-14-1-21.1-4.3c-7.7-3.6-13-8.3-16-14.3c-6.4-12.9-9.9-31.4-10.5-55.3c-0.4-16.8,0.3-30.8,2.1-41.9
			c-5.3-0.4-12.9-2-23.1-4.7c0.9-7.5,2.4-14.6,4.5-21.1C178,220.5,185.7,222,194.9,223.1z M219.5,225c11.1,0.6,19.1-0.4,24.1-2.8
			c3-1.4,4.5-4.1,4.5-8.1c0-5.3-2.8-7.9-8.3-7.9C230.5,206.2,223.7,212.5,219.5,225z"/>
		<path fill="#FFFFFF" d="M352.9,363c-6.4,0-11-1.1-13.7-3.2c-3.1-2.7-5.4-8.1-6.8-16.2c-4.1,8.8-9.5,14.4-16.2,16.8
			c-2.6,1-5.5,1.5-8.7,1.5c-10.1,0-16.9-3.6-20.4-10.7c-3.5-7.1-5.2-18.9-5.2-35.3c0-9.5,0.6-22.2,1.9-38.1
			c1-13.3,2.5-22.7,4.5-28.4c2.4-7,6.7-12.4,12.8-16.3c4.8-3,10.1-4.5,15.8-4.5c9,0,16,3.8,20.9,11.5c0.6-4.4,1.2-9,1.9-13.7
			c4.5,0,11.4,0.4,20.5,1.1c-1.8,29.2-4,64.3-6.4,105.3c-0.2,2.9,1.6,4.3,5.1,4.3c1.4,0,2.6-0.3,3.4-0.9c5.4-4,8.9-6.7,10.5-8.1
			c4.8-4.8,10.6-12.2,17.3-22c4.1,3.7,7.8,8.1,11.1,13.3c-11.1,17.8-20.9,30-29.5,36.7C365.8,360.7,359.5,363,352.9,363z
			 M331.6,319.4c1-11,2.4-30.2,4-57.7c-4.6-7.7-9.5-11.5-14.7-11.5c-5.8,0-9.9,3.6-12.2,10.7c-3.1,9.7-4.7,27.3-4.7,53
			c0,11.4,0.5,17.6,1.5,18.6c1.6,1.6,3.6,2.4,6.2,2.4C318.1,334.8,324.7,329.6,331.6,319.4z"/>
		<path fill="#FFFFFF" d="M440.9,343.9c-1.1-12.7-1.8-29.7-2.1-50.7c-0.3-18.5-0.6-28.4-0.9-29.7c-1-4.1-3.1-6.2-6.2-6.2
			c-4.8,0-12.1,4.9-21.8,14.7c1.1,16.9,2.8,45.6,4.9,85.9c-6.8,0.9-15,1.8-24.6,2.8l-5.1-131.1c6.4-0.7,13.2-1.1,20.3-1.1
			c0.2,3.8,0.8,10.8,1.9,20.9c7.3-6.1,12-10,14.1-11.5c6.7-4.3,13-6.4,19-6.4c2,0,4,0.2,6,0.6c7.1,1.7,11.7,9.9,13.7,24.6
			c0.4,2.9,1.1,14.8,1.9,35.9c0.6,14.8,0.9,23.5,1.1,26c0.6,10.6,1.3,16.3,2,17.4c0.8,1.1,1.7,1.6,2.9,1.6
			c5.6,0,14.3-10.5,26.3-31.4c4.5,4.3,8.1,8.7,10.7,13.3c-6.8,15.7-16,27.8-27.3,36.3c-6.4,4.8-12.9,7.3-19.7,7.3
			C447.7,363,442.1,356.6,440.9,343.9z"/>
		<path fill="#FFFFFF" d="M560.1,363c-6.4,0-11-1.1-13.7-3.2c-3.1-2.7-5.4-8.1-6.8-16.2c-4.1,8.8-9.5,14.4-16.2,16.8
			c-2.6,1-5.5,1.5-8.7,1.5c-10.1,0-16.9-3.6-20.4-10.7c-3.5-7.1-5.2-18.9-5.2-35.3c0-9.5,0.6-22.2,1.9-38.1
			c1-13.3,2.5-22.7,4.5-28.4c2.4-7,6.7-12.4,12.8-16.3c4.8-3,10.1-4.5,15.8-4.5c9,0,16,3.8,20.9,11.5c0.6-4.4,1.2-9,1.9-13.7
			c4.5,0,11.4,0.4,20.5,1.1c-1.8,29.2-4,64.3-6.4,105.3c-0.2,2.9,1.6,4.3,5.1,4.3c1.4,0,2.6-0.3,3.4-0.9c5.4-4,8.9-6.7,10.5-8.1
			c4.8-4.8,10.6-12.2,17.3-22c4.1,3.7,7.8,8.1,11.1,13.3c-11.1,17.8-20.9,30-29.5,36.7C572.9,360.7,566.6,363,560.1,363z
			 M538.7,319.4c1-11,2.4-30.2,4-57.7c-4.6-7.7-9.5-11.5-14.7-11.5c-5.8,0-9.9,3.6-12.2,10.7c-3.1,9.7-4.7,27.3-4.7,53
			c0,11.4,0.5,17.6,1.5,18.6c1.6,1.6,3.6,2.4,6.2,2.4C525.3,334.8,531.9,329.6,538.7,319.4z"/>
		<path fill="#FFFFFF" d="M642.3,229.1c5.6,9.1,11.8,14.5,18.8,16.2c2,0.4,4,0.6,6,0.6c4.8,0,9.8-1.3,14.9-3.8
			c0.6,1.1,2.4,6.5,5.3,16c-6.6,7.5-15.3,11.3-26.3,11.3c-6.7,0-11.9-1.6-15.6-4.9c-7.7,8-14.1,24.9-19.2,50.8
			c-3.6,17.5-5.1,32.8-4.7,45.7c-7.3-0.3-14.9-1-23.1-2.1c-1-30.5-3-73.2-6-127.9l22.2-1.9c0.4,6.1,1.1,23.7,2.1,52.8
			c0.3,0.2,0.4,0.2,0.4,0c2.7-8.4,5.4-16.8,8.1-25.2C629.4,246.1,635,236.9,642.3,229.1z"/>
		<path fill="#FFFFFF" d="M695.9,322.6c-0.3,4.8,1.3,7.3,4.9,7.3c6.1,0,13.7-4.6,22.9-13.9c0.9-17.5,2.6-45.7,5.3-84.6
			c9.3-0.4,17.1-0.4,23.5,0.2c-0.4,12.2-1.6,31.4-3.6,57.5c-2,26.1-3.1,43.3-3.4,51.6c12.9-12,24.9-23.5,35.9-34.6
			c2.9,2.9,6.4,7.2,10.7,13c-9,9.7-18,19.4-27,29c-9,9.7-16,16.5-21,20.5c-0.3,9.3-0.6,18.7-1.1,28.4c-1,18.1-4,30.6-9,37.6
			c-3.8,5.4-10.2,8.7-19.2,10c-2.9,0.4-5.5,0.6-7.9,0.6c-9.3,0-16.7-2.9-22.2-8.7c-3.7-3.7-5.6-10.2-5.6-19.4
			c0-6.4,1.1-12.2,3.4-17.3c3.1-7.3,9-14.7,17.7-22.2c6-5.3,13.5-11.5,22.6-18.8c0.2-1.7,0.4-8,0.6-18.8
			c-13.3,11.7-24.7,17.5-34.4,17.5c-2.4,0-4.8-0.4-7.1-1.1c-2.7-0.9-5.1-3.1-7.1-6.6c-2.1-3.6-3-7.5-2.9-12c0.3-7,0.8-20.9,1.5-41.9
			c0-9.8,1.3-31.4,3.8-64.7c9.7-1,17.6-0.9,23.9,0.2C699.7,259.3,697.9,289.6,695.9,322.6z M722.4,383.2c-4.3,4.3-8.6,8.5-13,12.8
			c-5,5.1-7.8,9.2-8.5,12.2c-0.6,2.4-0.9,4.8-0.9,7.1c0,7.1,2.4,10.5,7.3,10.2c5.4-0.3,9.1-2.4,11.1-6.4c0.4-0.9,1.1-4.1,2.1-9.8
			c0.7-3.7,1.1-8.3,1.3-13.9C722,388.9,722.2,384.8,722.4,383.2z"/>
	</g>
</g>
</svg>
