<?xml version="1.0" encoding="utf-8"?>
<!-- Generator: Adobe Illustrator 18.1.0, SVG Export Plug-In . SVG Version: 6.00 Build 0)  -->
<!DOCTYPE svg PUBLIC "-//W3C//DTD SVG 1.1//EN" "http://www.w3.org/Graphics/SVG/1.1/DTD/svg11.dtd">
<svg version="1.1" id="Layer_1" xmlns="http://www.w3.org/2000/svg" xmlns:xlink="http://www.w3.org/1999/xlink" x="0px" y="0px"
	 viewBox="0 0 186.5 208.6" enable-background="new 0 0 186.5 208.6" xml:space="preserve">
<g id="Bird">
	<g>
		
			<image overflow="visible" opacity="0.2" enable-background="new    " width="549" height="635" xlink:href="27DA2DD0A492B91F.png"  transform="matrix(0.3067 0 0 0.3067 0 0)">
		</image>
		<g>
			
				<linearGradient id="SVGID_1_" gradientUnits="userSpaceOnUse" x1="578.8967" y1="-162.9236" x2="769.3872" y2="-96.927" gradientTransform="matrix(0.3067 0 0 -0.3067 -210.0581 90.3808)">
				<stop  offset="0" style="stop-color:#E0E0DF"/>
				<stop  offset="4.079640e-02" style="stop-color:#D4D3D4"/>
				<stop  offset="1" style="stop-color:#FFFFFF"/>
			</linearGradient>
			<path fill="url(#SVGID_1_)" d="M151.1,172.4c-6-6-14.8-15.5-17.3-17.9c-2.5-2.5-8.7-7.4-8.7-7.4l-13.4-15.6
				c0,0-19.4-27.5-25.3-34.4c-16-18.6-28.2-35.6-30.5-43.1C54.3,48.8,54,43.9,54,38.5s-0.7-15-2.3-21.7C49.7,8.1,43,3.6,39.5,2.3
				C35.4,0.7,29.4,0,25.8,0.9c-2.2,0.6-5.4,2.4-5.4,2.4l-5.2,10.2c0,0-1.2,2.7-2.6,7.6s-0.4,10.3-1,14.6C11,40.1,6,43.2,3.4,53.3
				c-6,23.2-1.3,42.6,5.2,52.5c5.8,8.9,12.9,14.6,22,20.7c8.7,5.8,20.5,10.1,23.8,11.3c3.3,1.2,4.1,3.9,3.9,7.4
				c-0.2,3.5-8.4,6.2-14.4,8.3c-6,2.1-8.4,1.4-11.7,3.5c-3.3,2.1-16.5,3.8-18.4,4.7s-2.9,2.5-2.9,2.5s15.3-2.9,20.6-2.5
				c3.2,0.2,13.1,3.2,13.1,3.2s-1.3-1.9-1.8-2.5c-1.4-1.2-6.3-2.1-6.3-2.1s2.6-1.1,3.6-1.3c1.6-0.2,5.1,0.1,6.7,0.2
				c3.7,0.4,14.5,2.3,14.5,2.3s-1.3-1.7-2.5-2.2c-1.7-0.8-6.9-1.7-6.9-1.7s6.2-3.9,8.4-4.9c2.2-1,5.4-1.2,7.2-3.1
				c1.8-1.9,1.4-5.2,1.4-5.2s3.8-0.5,8.2-0.2c7.2,0.5,17.1,2.9,21.7,4.2c10.7,3.1,18.1,6.3,27.9,13.7c6.8,5.1,38.3,29,38.3,29
				S157.1,178.4,151.1,172.4z M41.2,15.7c-0.2,0.3-3,0.7-4.4-0.6c-1.4-1.2-0.7-3.2-0.7-3.2c1.7-1.3,3.2-0.3,3.7,0.2
				C41.1,13.2,41.4,15.3,41.2,15.7z"/>
		</g>
	</g>
	<g>
		
			<image overflow="visible" opacity="0.2" enable-background="new    " width="268" height="211" xlink:href="27DA2DD0A492B91D.png"  transform="matrix(0.3067 0 0 0.3067 104.2913 143.8606)">
		</image>
		<g>
			
				<linearGradient id="SVGID_2_" gradientUnits="userSpaceOnUse" x1="1196.3749" y1="-426.7081" x2="1172.3749" y2="-355.7081" gradientTransform="matrix(0.3067 0 0 -0.3067 -210.0581 90.3808)">
				<stop  offset="0" style="stop-color:#E0E0DF"/>
				<stop  offset="4.079640e-02" style="stop-color:#D4D3D4"/>
				<stop  offset="1" style="stop-color:#FFFFFF"/>
			</linearGradient>
			<path fill="url(#SVGID_2_)" d="M101.7,141.5c0,0,22.3,18.8,33.7,27.8c11.4,9,35.2,28.8,35.2,28.8c-0.1-2.2-3.3-5.3-3.3-5.3
				l10.7,7.5c0,0-2.4-3.5-4.1-5.5c-5-5.6-63.2-52.1-63.2-52.1"/>
		</g>
	</g>
	<g>
		
			<image overflow="visible" opacity="0.2" enable-background="new    " width="244" height="249" xlink:href="27DA2DD0A492B923.png"  transform="matrix(0.3067 0 0 0.3067 57.6669 70.55)">
		</image>
		<g>
			
				<linearGradient id="SVGID_3_" gradientUnits="userSpaceOnUse" x1="1138.2883" y1="-216.1082" x2="1061.2883" y2="-134.1082" gradientTransform="matrix(0.3067 0 0 -0.3067 -210.0581 90.3808)">
				<stop  offset="0" style="stop-color:#E0E0DF"/>
				<stop  offset="4.079640e-02" style="stop-color:#D4D3D4"/>
				<stop  offset="1" style="stop-color:#FFFFFF"/>
			</linearGradient>
			<path fill="url(#SVGID_3_)" d="M60,70.8c4.6,4.3,17.5,17.5,24.7,24.8c6.7,6.8,44.5,45.8,44.5,45.8s-2.8-0.1-4.9-1
				c-5.4-2.3-14.4-10.4-14.4-10.4"/>
		</g>
	</g>
	<g>
		
			<image overflow="visible" opacity="0.2" enable-background="new    " width="360" height="226" xlink:href="27DA2DD0A492B925.png"  transform="matrix(0.3067 0 0 0.3067 26.3796 87.4206)">
		</image>
		<g>
			
				<linearGradient id="SVGID_4_" gradientUnits="userSpaceOnUse" x1="1022.0999" y1="-264.7048" x2="983.0999" y2="-186.7048" gradientTransform="matrix(0.3067 0 0 -0.3067 -210.0581 90.3808)">
				<stop  offset="0" style="stop-color:#E0E0DF"/>
				<stop  offset="4.079640e-02" style="stop-color:#D4D3D4"/>
				<stop  offset="1" style="stop-color:#FFFFFF"/>
			</linearGradient>
			<path fill="url(#SVGID_4_)" d="M71.6,104c10.1,7.8,25.5,14.7,31.4,19.8c6.3,5.3,25.5,25.3,25.5,25.3s-54-25.3-69.2-34.5
				s-35.2-29-35.2-29"/>
		</g>
	</g>
	<g>
		
			<image overflow="visible" opacity="0.2" enable-background="new    " width="68" height="106" xlink:href="27DA2DD0A492B927.png"  transform="matrix(0.3067 0 0 0.3067 34.6615 15.0302)">
		</image>
		<g>
			
				<linearGradient id="SVGID_5_" gradientUnits="userSpaceOnUse" x1="946.1481" y1="135.8866" x2="834.1481" y2="185.8866" gradientTransform="matrix(0.3067 0 0 -0.3067 -210.0581 90.3808)">
				<stop  offset="0" style="stop-color:#E0E0DF"/>
				<stop  offset="4.079640e-02" style="stop-color:#D4D3D4"/>
				<stop  offset="1" style="stop-color:#FFFFFF"/>
			</linearGradient>
			<path fill="url(#SVGID_5_)" d="M41.2,15.7c8.8,8.2,13.4,14.5,10.2,21.1c-4.2,8.7-16,7.6-16,7.6"/>
		</g>
	</g>
	<g>
		
			<image overflow="visible" opacity="0.2" enable-background="new    " width="168" height="67" xlink:href="27DA2DD0A492B924.png"  transform="matrix(0.3067 0 0 0.3067 37.4222 86.5004)">
		</image>
		<g>
			
				<linearGradient id="SVGID_6_" gradientUnits="userSpaceOnUse" x1="860.5276" y1="-109.8577" x2="882.5276" y2="-15.8578" gradientTransform="matrix(0.3067 0 0 -0.3067 -210.0581 90.3808)">
				<stop  offset="0" style="stop-color:#E0E0DF"/>
				<stop  offset="4.079640e-02" style="stop-color:#D4D3D4"/>
				<stop  offset="1" style="stop-color:#FFFFFF"/>
			</linearGradient>
			<path fill="url(#SVGID_6_)" d="M38,86.2l15.3,11.6c0,0,10.1,2.5,16.3,3.1s14.4,0,14.4,0l-12.6-12"/>
		</g>
	</g>
	<path fill="none" d="M12.3,2.9c0,0,5,3.5,7.1,5.1c4.6,3.7,4.6,8,4.6,8"/>
	<g>
		<path fill="#FFFFFF" d="M12.3,2.9c0,0,3.6-0.2,6.3,0.1c1.7,0.2,4.4,0.8,4.8,1.3c0.4,0.5,2.1,2.5,2.1,5.4c0,2.7-1.5,6.3-1.5,6.3
			s-6.7-0.2-7.7-1.2c-1.2-1.2-2.3-3.7-2.8-5.2C12.5,6.8,12.3,2.9,12.3,2.9z"/>
	</g>
</g>
</svg>
